<?xml version="1.0"?><svg height="48px" version="1.1" viewBox="0 0 48 48" width="48px" xmlns="http://www.w3.org/2000/svg" xmlns:xlink="http://www.w3.org/1999/xlink"><title/><g fill="none" fill-rule="evenodd" id="arrow-download" stroke="none" stroke-width="1"><path d="M15.0840272,15.2226499 L15.0434867,15.2953753 C14.8973591,15.6162383 15.1292295,16 15.5000524,16 L21,16 L21.0000524,34.5 C21.0000524,34.7761424 21.22391,35 21.5000524,35 L25.5000524,35 L25.589928,34.9919443 C25.8231772,34.9496084 26.0000524,34.7454599 26.0000524,34.5 L26,16 L31.5000524,16 C31.8994001,16 32.1375958,15.5549273 31.9160775,15.2226499 L23.9160775,3.2226499 C23.7181665,2.92578337 23.2819382,2.92578337 23.0840272,3.2226499 L15.0840272,15.2226499 Z M23.5,4.401 L30.566,15 L25.5000524,15 L25.4101767,15.0080557 C25.1769275,15.0503916 25.0000524,15.2545401 25.0000524,15.5 L25,34 L22,34 L22.0000524,15.5 L21.9919967,15.4101244 C21.9496607,15.1768752 21.7455123,15 21.5000524,15 L16.434,15 L23.5,4.401 Z" fill="#000000" fill-rule="nonzero" id="Path" transform="translate(23.500052, 19.000000) scale(-1, 1) rotate(-180.000000) translate(-23.500052, -19.000000) "/><path d="M25.5000524,22 L21.5000524,22 C21.22391,22 21.0000524,22.2238576 21.0000524,22.5 L21.0000524,58.5 C21.0000524,58.7761424 21.22391,59 21.5000524,59 L25.5000524,59 C25.7761947,59 26.0000524,58.7761424 26.0000524,58.5 L26.0000524,22.5 C26.0000524,22.2238576 25.7761947,22 25.5000524,22 Z M25,23 L25,58 L22,58 L22,23 L25,23 Z" fill="#000000" fill-rule="nonzero" id="Rectangle" transform="translate(23.500052, 40.500000) rotate(-270.000000) translate(-23.500052, -40.500000) "/></g></svg>